<?xml version="1.0" encoding="UTF-8" standalone="no"?><!-- Generator: Gravit.io --><svg xmlns="http://www.w3.org/2000/svg" xmlns:xlink="http://www.w3.org/1999/xlink" style="isolation:isolate" viewBox="0 0 927.76 742.508" width="927.76pt" height="742.508pt"><defs><clipPath id="_clipPath_pR01egzNwl9WjRkrx9a9p78gfuxReYXX"><rect width="927.76" height="742.508"/></clipPath></defs><g clip-path="url(#_clipPath_pR01egzNwl9WjRkrx9a9p78gfuxReYXX)"><path d=" M 927.76 251.193 L 927.76 444.373 L 425.38 444.373 L 425.38 251.193 C 425.289 196.828 442.923 143.915 475.61 100.473 C 519.993 41.286 588.213 4.677 662.07 0.413 Q 669.255 -0.007 676.57 0.003 C 679.34 0.003 682.11 0.043 684.85 0.143 C 748.585 2.162 809.148 28.425 854.18 73.573 C 855.54 74.933 856.87 76.303 858.21 77.683 C 865.093 84.893 871.544 92.503 877.53 100.473 C 910.212 143.917 927.846 196.829 927.76 251.193 L 927.76 251.193 Z " fill="rgb(63,61,86)"/><circle vector-effect="non-scaling-stroke" cx="802.64523" cy="177.29151" r="66.19259999999997" fill="rgb(230,255,250)"/><g opacity="0.2"><circle vector-effect="non-scaling-stroke" cx="796.13448" cy="131.71628" r="7.595869999999991" fill="rgb(0,0,0)"/></g><g opacity="0.2"><circle vector-effect="non-scaling-stroke" cx="809.15598" cy="207.675" r="7.595869999999991" fill="rgb(0,0,0)"/></g><g opacity="0.2"><circle vector-effect="non-scaling-stroke" cx="838.45434" cy="165.35514" r="5.425619999999981" fill="rgb(0,0,0)"/></g><g opacity="0.2"><circle vector-effect="non-scaling-stroke" cx="776.60224" cy="182.71713" r="17.36198999999999" fill="rgb(0,0,0)"/></g><g opacity="0.8"><linearGradient id="_lgradient_6" x1="-5.820730386574269e-8" y1="0.5000001967667815" x2="1.0000000098617612" y2="0.5000001967667815" gradientTransform="matrix(86.81,0,0,101.643,592.643,257.806)" gradientUnits="userSpaceOnUse"><stop offset="0%" stop-opacity="1" style="stop-color:rgb(255,255,255)"/><stop offset="100%" stop-opacity="0.3" style="stop-color:rgb(255,255,255)"/></linearGradient><path d=" M 594.565 359.061 L 627.536 320.462 L 660.507 281.864 L 679.119 260.074 C 680.149 258.869 678.56 256.988 677.53 258.194 L 644.559 296.792 L 611.589 335.391 L 592.976 357.18 C 591.946 358.386 593.536 360.267 594.565 359.061 L 594.565 359.061 Z " fill="url(#_lgradient_6)"/></g><g opacity="0.8"><linearGradient id="_lgradient_7" x1="0" y1="0.5" x2="1" y2="0.5" gradientTransform="matrix(86.81,0,0,101.643,589.643,87.806)" gradientUnits="userSpaceOnUse"><stop offset="100%" stop-opacity="1" style="stop-color:rgb(255,255,255)"/><stop offset="100%" stop-opacity="0.9919364100690278" style="stop-color:rgb(255,255,255)"/></linearGradient><path d=" M 591.565 189.061 L 624.536 150.462 L 657.507 111.864 L 676.119 90.074 C 677.149 88.869 675.56 86.988 674.53 88.194 L 641.559 126.792 L 608.589 165.391 L 589.976 187.18 C 588.946 188.386 590.536 190.267 591.565 189.061 L 591.565 189.061 Z " fill="url(#_lgradient_7)"/></g><path d=" M 684.853 0.145 L 684.853 444.371 L 662.065 444.371 L 662.065 0.414 Q 669.259 -0.005 676.567 0 C 679.343 0 682.108 0.041 684.853 0.145 Z " fill="rgb(255,255,255)"/><path d=" M 877.528 100.476 L 475.605 100.476 C 481.588 92.504 488.039 84.895 494.924 77.687 L 858.21 77.687 C 865.094 84.895 871.545 92.504 877.528 100.476 L 877.528 100.476 Z " fill="rgb(255,255,255)"/><circle vector-effect="non-scaling-stroke" cx="871.61889" cy="292.41526" r="5.215490000000045" fill="rgb(230,230,230)"/><circle vector-effect="non-scaling-stroke" cx="534.61889" cy="249.41526" r="5.215490000000045" fill="rgb(230,230,230)"/><path d=" M 772.631 272.745 L 770.028 275.331 L 767.442 272.727 L 765.707 274.451 L 768.292 277.054 L 765.689 279.64 L 767.412 281.375 L 770.016 278.79 L 772.601 281.393 L 774.337 279.669 L 771.751 277.066 L 774.354 274.481 L 772.631 272.745 L 772.631 272.745 Z " fill="rgb(230,230,230)"/><path d=" M 484.631 324.745 L 482.028 327.331 L 479.442 324.727 L 477.707 326.451 L 480.292 329.054 L 477.689 331.64 L 479.412 333.375 L 482.016 330.79 L 484.601 333.393 L 486.337 331.669 L 483.751 329.066 L 486.354 326.481 L 484.631 324.745 L 484.631 324.745 Z " fill="rgb(230,230,230)"/><path d=" M 743.631 354.745 L 741.028 357.331 L 738.442 354.727 L 736.707 356.451 L 739.292 359.054 L 736.689 361.64 L 738.412 363.375 L 741.016 360.79 L 743.601 363.393 L 745.337 361.669 L 742.751 359.066 L 745.354 356.481 L 743.631 354.745 L 743.631 354.745 Z " fill="rgb(230,230,230)"/><path d=" M 567.631 124.745 L 565.028 127.331 L 562.442 124.727 L 560.707 126.451 L 563.292 129.054 L 560.689 131.64 L 562.412 133.375 L 565.016 130.79 L 567.601 133.393 L 569.337 131.669 L 566.751 129.066 L 569.354 126.481 L 567.631 124.745 L 567.631 124.745 Z " fill="rgb(230,230,230)"/><rect x="0" y="705.803" width="606.096" height="2" transform="matrix(1,0,0,1,0,0)" fill="rgb(160,174,192)" fill-opacity="0.75"/><path d=" M 96.424 544.564 C 83.174 563.294 79.674 669.894 78.894 704.064 C 78.874 704.834 78.854 705.564 78.844 706.254 L 45.304 706.254 C 44.894 705.524 44.514 704.804 44.154 704.064 C 24.274 664.824 35.304 617.774 35.884 615.394 C 34.374 622.874 41.204 644.554 48.924 665.554 C 53.634 600.984 93.904 547.824 96.424 544.564 Z " fill="rgb(160,174,192)" fill-opacity="0.75"/><path d=" M 303.245 448.589 L 299.449 465.039 C 299.449 465.039 300.715 503 290.592 499.204 C 290.592 499.204 282.999 462.508 282.999 462.508 L 291.857 446.059 L 303.245 448.589 Z " fill="rgb(255,184,184)"/><circle vector-effect="non-scaling-stroke" cx="246.93671" cy="242.96846" r="25.30718999999999" fill="rgb(255,184,184)"/><path d=" M 227.324 249.928 L 224.793 286.623 L 256.427 290.419 C 256.427 290.419 256.427 260.051 258.958 256.255 C 261.488 252.459 227.324 249.928 227.324 249.928 Z " fill="rgb(255,184,184)"/><path d=" M 297.478 297.715 L 256.487 280.399 C 256.487 280.399 236.9 265.313 225.427 276.489 L 220.278 283.864 C 220.278 283.864 174.741 301.619 174.753 315.538 L 192.529 385.117 C 192.529 385.117 182.441 424.352 197.627 426.87 L 279.882 434.39 C 279.882 434.39 291.258 420.461 281.12 402.755 L 284.879 360.995 L 297.478 297.715 Z " fill="rgb(178,245,234)"/><path d=" M 269.641 299.005 L 297.478 297.715 C 297.478 297.715 306.337 300.238 312.685 324.275 C 312.685 324.275 320.333 387.536 320.333 387.536 L 305.21 458.409 L 286.228 455.895 L 293.76 387.559 L 281.067 342.017 L 269.641 299.005 Z " fill="rgb(178,245,234)"/><path d=" M 189.93 306.667 L 176.209 310.954 C 176.209 310.954 164.641 328.2 164.649 337.058 C 164.649 337.058 159.654 412.984 159.654 412.984 L 192.601 467.366 L 202.701 440.784 L 182.425 406.637 L 198.838 364.866 L 189.93 306.667 Z " fill="rgb(178,245,234)"/><path d=" M 283.632 431.507 L 192.657 423.503 C 192.657 423.503 183.669 480.856 184.934 503.633 C 186.199 526.409 187.465 561.839 187.465 561.839 L 177.342 716.213 L 216.568 711.152 L 221.63 583.35 L 238.079 513.755 L 257.06 602.331 L 269.713 716.213 L 303.878 712.417 L 292.49 574.493 C 292.49 574.493 302.613 450.487 283.632 431.507 Z " fill="rgb(47,46,65)"/><path d=" M 296.286 706.09 L 307.674 709.886 C 307.674 709.886 331.716 703.559 325.389 720.009 C 325.389 720.009 301.347 733.928 301.347 733.928 C 301.347 733.928 279.836 750.378 270.979 737.724 L 276.04 711.152 L 296.286 706.09 Z " fill="rgb(47,46,65)"/><path d=" M 203.914 706.09 L 215.303 709.886 C 215.303 709.886 239.345 703.559 233.018 720.009 C 233.018 720.009 208.976 733.928 208.976 733.928 C 208.976 733.928 187.465 750.378 178.607 737.724 L 183.669 711.152 L 203.914 706.09 Z " fill="rgb(47,46,65)"/><path d=" M 227.324 265.112 C 227.324 265.112 200.751 246.132 214.67 223.355 C 224.326 207.554 244.335 208.805 255.685 211.053 C 261.893 212.199 267.139 216.326 269.713 222.09 C 271.611 226.519 271.611 230.948 264.019 230.948 C 248.835 230.948 256.427 242.336 256.427 242.336 C 256.427 242.336 246.304 244.867 248.835 253.724 C 251.365 262.582 227.324 265.112 227.324 265.112 Z " fill="rgb(47,46,65)"/></g></svg>