<?xml version="1.0" encoding="UTF-8" standalone="no"?><!-- Generator: Gravit.io --><svg xmlns="http://www.w3.org/2000/svg" xmlns:xlink="http://www.w3.org/1999/xlink" style="isolation:isolate" viewBox="0 0 1096 574.74" width="1096pt" height="574.74pt"><defs><clipPath id="_clipPath_QilwoBxT76VEOPdBrEoWEJaXXeBogRmJ"><rect width="1096" height="574.74"/></clipPath></defs><g clip-path="url(#_clipPath_QilwoBxT76VEOPdBrEoWEJaXXeBogRmJ)"><g style="opacity:0.1;"><g opacity="0.1"><ellipse vector-effect="non-scaling-stroke" cx="479.42" cy="362.12" rx="11.379999999999995" ry="14.899999999999977" fill="rgb(63,61,86)"/></g><g opacity="0.1"><path d=" M 488.43 298.37 C 490.018 295.598 490.839 292.454 490.81 289.26 C 490.81 281.03 485.71 274.36 479.42 274.36 C 473.13 274.36 468 281.05 468 289.28 C 467.971 292.474 468.792 295.618 470.38 298.39 C 467.207 304.045 467.207 310.945 470.38 316.6 C 467.207 322.255 467.207 329.155 470.38 334.81 C 468.79 337.581 467.968 340.726 468 343.92 C 468 352.14 473.1 358.82 479.38 358.82 C 485.66 358.82 490.77 352.14 490.77 343.92 C 490.802 340.726 489.98 337.581 488.39 334.81 C 491.563 329.155 491.563 322.255 488.39 316.6 C 491.563 310.945 491.563 304.045 488.39 298.39 L 488.43 298.37 Z " fill="rgb(63,61,86)"/></g><g opacity="0.1"><ellipse vector-effect="non-scaling-stroke" cx="479.42" cy="271.07" rx="11.379999999999995" ry="14.899999999999977" fill="rgb(63,61,86)"/></g><g opacity="0.1"><ellipse vector-effect="non-scaling-stroke" cx="479.42" cy="252.86" rx="11.379999999999995" ry="14.899999999999991" fill="rgb(63,61,86)"/></g><g opacity="0.1"><path d=" M 436.82 128.23 C 435.26 126.253 433.844 124.168 432.58 121.99 L 462.48 117.08 L 430.14 117.32 C 423.883 103.67 423.521 88.045 429.14 74.12 L 472.53 96.63 L 432.53 67.21 C 442.668 49.387 461.947 38.758 482.43 39.699 C 502.913 40.64 521.137 52.992 529.598 71.669 C 538.06 90.346 535.329 112.191 522.53 128.21 C 524.955 131.29 527.04 134.623 528.75 138.15 L 489.92 158.37 L 531.31 144.48 C 537.22 161.936 533.913 181.195 522.52 195.68 C 540.103 218.03 537.553 250.141 516.665 269.437 C 495.776 288.733 463.564 288.733 442.675 269.437 C 421.787 250.141 419.237 218.03 436.82 195.68 C 421.259 175.9 421.259 148.04 436.82 128.26 L 436.82 128.23 Z " fill="rgb(0,176,255)"/></g><g opacity="0.1"><path d=" M 534.19 161.94 C 534.21 174.171 530.097 186.049 522.52 195.65 C 540.103 218 537.553 250.111 516.665 269.407 C 495.776 288.703 463.564 288.703 442.675 269.407 C 421.787 250.111 419.237 218 436.82 195.65 C 429.51 186.37 534.19 155.82 534.19 161.94 Z " fill="rgb(0,0,0)"/></g></g><g style="opacity:0.1;"><g opacity="0.1"><ellipse vector-effect="non-scaling-stroke" cx="612.28" cy="330.26" rx="8.509999999999991" ry="11.129999999999995" fill="rgb(63,61,86)"/></g><g opacity="0.1"><path d=" M 619 282.63 C 620.183 280.561 620.794 278.214 620.77 275.83 C 620.77 269.68 616.96 264.69 612.27 264.69 C 607.58 264.69 603.76 269.69 603.76 275.83 C 603.734 278.215 604.349 280.563 605.54 282.63 C 603.167 286.856 603.167 292.014 605.54 296.24 C 603.167 300.466 603.167 305.624 605.54 309.85 C 604.349 311.917 603.734 314.265 603.76 316.65 C 603.76 322.8 607.57 327.79 612.27 327.79 C 616.97 327.79 620.77 322.79 620.77 316.65 C 620.794 314.266 620.183 311.919 619 309.85 C 621.354 305.619 621.354 300.471 619 296.24 C 621.354 292.009 621.354 286.861 619 282.63 Z " fill="rgb(63,61,86)"/></g><g opacity="0.1"><ellipse vector-effect="non-scaling-stroke" cx="612.28" cy="262.22" rx="8.509999999999991" ry="11.129999999999995" fill="rgb(63,61,86)"/></g><g opacity="0.1"><ellipse vector-effect="non-scaling-stroke" cx="612.28" cy="248.61" rx="8.509999999999991" ry="11.129999999999995" fill="rgb(63,61,86)"/></g><g opacity="0.1"><path d=" M 580.44 155.48 C 579.272 154.005 578.213 152.448 577.27 150.82 L 599.62 147.15 L 575.45 147.33 C 570.764 137.131 570.482 125.453 574.67 115.04 L 607.1 131.87 L 577.19 109.87 C 584.815 96.645 599.191 88.791 614.439 89.52 C 629.688 90.249 643.249 99.439 649.577 113.331 C 655.905 127.223 653.938 143.487 644.48 155.47 C 646.29 157.774 647.849 160.265 649.13 162.9 L 620.13 177.97 L 651.06 167.59 C 655.474 180.634 653.002 195.025 644.49 205.85 C 657.647 222.547 655.753 246.554 640.142 260.983 C 624.531 275.411 600.449 275.411 584.838 260.983 C 569.227 246.554 567.333 222.547 580.49 205.85 C 568.862 191.07 568.862 170.25 580.49 155.47 L 580.44 155.48 Z " fill="rgb(0,176,255)"/></g><g opacity="0.1"><path d=" M 653.2 180.67 C 653.214 189.809 650.141 198.685 644.48 205.86 C 657.637 222.557 655.743 246.564 640.132 260.993 C 624.521 275.421 600.439 275.421 584.828 260.993 C 569.217 246.564 567.323 222.557 580.48 205.86 C 575 198.93 653.2 176.1 653.2 180.67 Z " fill="rgb(0,0,0)"/></g></g><g style="opacity:0.1;"><g opacity="0.1"><ellipse vector-effect="non-scaling-stroke" cx="1038.58" cy="322.12" rx="11.38000000000011" ry="14.899999999999977" fill="rgb(63,61,86)"/></g><g opacity="0.1"><path d=" M 1029.57 258.37 C 1027.982 255.598 1027.161 252.454 1027.19 249.26 C 1027.19 241.03 1032.29 234.36 1038.58 234.36 C 1044.87 234.36 1049.96 241.03 1049.96 249.26 C 1049.989 252.454 1049.168 255.598 1047.58 258.37 C 1050.753 264.025 1050.753 270.925 1047.58 276.58 C 1050.753 282.235 1050.753 289.135 1047.58 294.79 C 1049.17 297.561 1049.992 300.706 1049.96 303.9 C 1049.96 312.12 1044.86 318.8 1038.58 318.8 C 1032.3 318.8 1027.19 312.12 1027.19 303.9 C 1027.158 300.706 1027.98 297.561 1029.57 294.79 C 1026.397 289.135 1026.397 282.235 1029.57 276.58 C 1026.397 270.925 1026.397 264.025 1029.57 258.37 L 1029.57 258.37 Z " fill="rgb(63,61,86)"/></g><g opacity="0.1"><ellipse vector-effect="non-scaling-stroke" cx="1038.58" cy="231.07" rx="11.38000000000011" ry="14.900000000000006" fill="rgb(63,61,86)"/></g><g opacity="0.1"><ellipse vector-effect="non-scaling-stroke" cx="1038.58" cy="212.86" rx="11.38000000000011" ry="14.900000000000006" fill="rgb(63,61,86)"/></g><g opacity="0.1"><path d=" M 1081.18 88.23 C 1082.74 86.253 1084.156 84.168 1085.42 81.99 L 1055.52 77.08 L 1087.86 77.32 C 1094.117 63.67 1094.479 48.045 1088.86 34.12 L 1045.47 56.63 L 1085.47 27.21 C 1075.332 9.387 1056.053 -1.242 1035.57 -0.301 C 1015.087 0.64 996.863 12.992 988.402 31.669 C 979.94 50.346 982.671 72.191 995.47 88.21 C 993.045 91.29 990.96 94.623 989.25 98.15 L 1028.08 118.37 L 986.69 104.48 C 980.78 121.936 984.087 141.195 995.48 155.68 C 977.897 178.03 980.447 210.141 1001.335 229.437 C 1022.224 248.733 1054.436 248.733 1075.325 229.437 C 1096.213 210.141 1098.763 178.03 1081.18 155.68 C 1096.741 135.9 1096.741 108.04 1081.18 88.26 L 1081.18 88.23 Z " fill="rgb(0,176,255)"/></g><g opacity="0.1"><path d=" M 983.81 121.94 C 983.79 134.171 987.903 146.049 995.48 155.65 C 977.897 178 980.447 210.111 1001.335 229.407 C 1022.224 248.703 1054.436 248.703 1075.325 229.407 C 1096.213 210.111 1098.763 178 1081.18 155.65 C 1088.49 146.37 983.81 115.82 983.81 121.94 Z " fill="rgb(0,0,0)"/></g></g><g style="opacity:0.1;"><g opacity="0.1"><ellipse vector-effect="non-scaling-stroke" cx="928.72" cy="324.26" rx="8.509999999999991" ry="11.129999999999995" fill="rgb(63,61,86)"/></g><g opacity="0.1"><path d=" M 922 276.63 C 920.817 274.561 920.206 272.214 920.23 269.83 C 920.23 263.68 924.04 258.69 928.73 258.69 C 933.42 258.69 937.24 263.69 937.24 269.83 C 937.266 272.215 936.651 274.563 935.46 276.63 C 937.833 280.856 937.833 286.014 935.46 290.24 C 937.833 294.466 937.833 299.624 935.46 303.85 C 936.651 305.917 937.266 308.265 937.24 310.65 C 937.24 316.8 933.43 321.79 928.73 321.79 C 924.03 321.79 920.23 316.79 920.23 310.65 C 920.206 308.266 920.817 305.919 922 303.85 C 919.646 299.619 919.646 294.471 922 290.24 C 919.646 286.009 919.646 280.861 922 276.63 Z " fill="rgb(63,61,86)"/></g><g opacity="0.1"><ellipse vector-effect="non-scaling-stroke" cx="928.72" cy="256.22" rx="8.509999999999991" ry="11.129999999999995" fill="rgb(63,61,86)"/></g><g opacity="0.1"><ellipse vector-effect="non-scaling-stroke" cx="928.72" cy="242.61" rx="8.509999999999991" ry="11.129999999999995" fill="rgb(63,61,86)"/></g><g opacity="0.1"><path d=" M 960.56 149.48 C 961.728 148.005 962.787 146.448 963.73 144.82 L 941.38 141.15 L 965.55 141.33 C 970.236 131.131 970.518 119.453 966.33 109.04 L 933.9 125.87 L 963.81 103.87 C 956.185 90.645 941.809 82.791 926.561 83.52 C 911.312 84.249 897.751 93.439 891.423 107.331 C 885.095 121.223 887.062 137.487 896.52 149.47 C 894.71 151.774 893.151 154.265 891.87 156.9 L 920.87 171.97 L 890 161.6 C 885.586 174.644 888.058 189.035 896.57 199.86 C 883.413 216.557 885.307 240.564 900.918 254.993 C 916.529 269.421 940.611 269.421 956.222 254.993 C 971.833 240.564 973.727 216.557 960.57 199.86 C 972.198 185.08 972.198 164.26 960.57 149.48 L 960.56 149.48 Z " fill="rgb(0,176,255)"/></g><g opacity="0.1"><path d=" M 887.8 174.67 C 887.786 183.809 890.859 192.685 896.52 199.86 C 883.363 216.557 885.257 240.564 900.868 254.993 C 916.479 269.421 940.561 269.421 956.172 254.993 C 971.783 240.564 973.677 216.557 960.52 199.86 C 966 192.93 887.8 170.1 887.8 174.67 Z " fill="rgb(0,0,0)"/></g></g><g style="opacity:0.1;"><g opacity="0.1"><ellipse vector-effect="non-scaling-stroke" cx="61.59" cy="322.12" rx="11.379999999999999" ry="14.899999999999977" fill="rgb(63,61,86)"/></g><g opacity="0.1"><path d=" M 70.59 258.37 C 72.178 255.598 72.999 252.454 72.97 249.26 C 72.97 241.03 67.87 234.36 61.59 234.36 C 55.31 234.36 50.21 241.03 50.21 249.26 C 50.178 252.453 50.996 255.597 52.58 258.37 C 49.419 264.028 49.419 270.922 52.58 276.58 C 49.419 282.238 49.419 289.132 52.58 294.79 C 50.993 297.561 50.175 300.706 50.21 303.9 C 50.21 312.12 55.3 318.8 61.59 318.8 C 67.88 318.8 73 312.14 73 303.92 C 73.032 300.726 72.21 297.581 70.62 294.81 C 73.793 289.155 73.793 282.255 70.62 276.6 C 73.793 270.945 73.793 264.045 70.62 258.39 L 70.59 258.37 Z " fill="rgb(63,61,86)"/></g><g opacity="0.1"><ellipse vector-effect="non-scaling-stroke" cx="61.59" cy="231.07" rx="11.379999999999999" ry="14.900000000000006" fill="rgb(63,61,86)"/></g><g opacity="0.1"><ellipse vector-effect="non-scaling-stroke" cx="61.59" cy="212.86" rx="11.379999999999999" ry="14.900000000000006" fill="rgb(63,61,86)"/></g><g opacity="0.1"><path d=" M 19 88.23 C 17.444 86.251 16.027 84.166 14.76 81.99 L 44.67 77.08 L 12.3 77.37 C 6.043 63.72 5.681 48.095 11.3 34.17 L 54.7 56.68 L 14.7 27.26 C 24.863 9.491 44.123 -1.087 64.57 -0.132 C 85.018 0.824 103.207 13.152 111.669 31.791 C 120.131 50.43 117.44 72.238 104.7 88.26 C 107.125 91.34 109.21 94.673 110.92 98.2 L 72.08 118.37 L 113.48 104.48 C 119.376 121.938 116.067 141.192 104.68 155.68 C 122.263 178.03 119.713 210.141 98.825 229.437 C 77.936 248.733 45.724 248.733 24.835 229.437 C 3.947 210.141 1.397 178.03 18.98 155.68 C 3.419 135.9 3.419 108.04 18.98 88.26 L 19 88.23 Z " fill="rgb(0,176,255)"/></g><g opacity="0.1"><path d=" M 116.35 121.94 C 116.37 134.171 112.257 146.049 104.68 155.65 C 122.263 178 119.713 210.111 98.825 229.407 C 77.936 248.703 45.724 248.703 24.835 229.407 C 3.947 210.111 1.397 178 18.98 155.65 C 11.67 146.37 116.35 115.82 116.35 121.94 Z " fill="rgb(0,0,0)"/></g></g><g style="opacity:0.1;"><g opacity="0.1"><ellipse vector-effect="non-scaling-stroke" cx="171.44" cy="324.26" rx="8.509999999999991" ry="11.129999999999995" fill="rgb(63,61,86)"/></g><g opacity="0.1"><path d=" M 178.17 276.63 C 179.353 274.561 179.964 272.214 179.94 269.83 C 179.94 263.68 176.14 258.69 171.44 258.69 C 166.74 258.69 162.93 263.69 162.93 269.83 C 162.909 272.214 163.523 274.562 164.71 276.63 C 162.337 280.856 162.337 286.014 164.71 290.24 C 162.337 294.466 162.337 299.624 164.71 303.85 C 163.523 305.918 162.909 308.266 162.93 310.65 C 162.93 316.8 166.74 321.79 171.44 321.79 C 176.14 321.79 179.94 316.79 179.94 310.65 C 179.964 308.266 179.353 305.919 178.17 303.85 C 180.524 299.619 180.524 294.471 178.17 290.24 C 180.524 286.009 180.524 280.861 178.17 276.63 Z " fill="rgb(63,61,86)"/></g><g opacity="0.1"><ellipse vector-effect="non-scaling-stroke" cx="171.44" cy="256.22" rx="8.509999999999991" ry="11.129999999999995" fill="rgb(63,61,86)"/></g><g opacity="0.1"><ellipse vector-effect="non-scaling-stroke" cx="171.44" cy="242.61" rx="8.509999999999991" ry="11.129999999999995" fill="rgb(63,61,86)"/></g><g opacity="0.1"><path d=" M 139.6 149.48 C 138.436 148.003 137.376 146.446 136.43 144.82 L 158.78 141.15 L 134.61 141.33 C 129.924 131.131 129.642 119.453 133.83 109.04 L 166.26 125.87 L 136.35 103.87 C 143.975 90.645 158.351 82.791 173.599 83.52 C 188.848 84.249 202.409 93.439 208.737 107.331 C 215.065 121.223 213.098 137.487 203.64 149.47 C 205.457 151.769 207.016 154.261 208.29 156.9 L 179.29 171.97 L 210.22 161.59 C 214.634 174.634 212.162 189.025 203.65 199.85 C 216.807 216.547 214.913 240.554 199.302 254.983 C 183.691 269.411 159.609 269.411 143.998 254.983 C 128.387 240.554 126.493 216.547 139.65 199.85 C 128.022 185.07 128.022 164.25 139.65 149.47 L 139.6 149.48 Z " fill="rgb(0,176,255)"/></g><g opacity="0.1"><path d=" M 212.36 174.67 C 212.374 183.809 209.301 192.685 203.64 199.86 C 216.797 216.557 214.903 240.564 199.292 254.993 C 183.681 269.421 159.599 269.421 143.988 254.993 C 128.377 240.564 126.483 216.557 139.64 199.86 C 134.14 192.93 212.36 170.1 212.36 174.67 Z " fill="rgb(0,0,0)"/></g></g><g opacity="0.1"><ellipse vector-effect="non-scaling-stroke" cx="548" cy="493.13" rx="548" ry="8.860000000000014" fill="rgb(0,176,255)"/></g><g opacity="0.1"><ellipse vector-effect="non-scaling-stroke" cx="548" cy="565.88" rx="548" ry="8.860000000000014" fill="rgb(0,176,255)"/></g><g opacity="0.1"><ellipse vector-effect="non-scaling-stroke" cx="548" cy="341.3" rx="548" ry="8.860000000000014" fill="rgb(0,176,255)"/></g><g opacity="0.1"><ellipse vector-effect="non-scaling-stroke" cx="548" cy="417.21" rx="548" ry="8.860000000000014" fill="rgb(0,176,255)"/></g><g opacity="0.1"><path d=" M 808.79 110.37 C 805.22 109.696 801.53 110.1 798.19 111.53 C 794.136 113.337 789.504 113.337 785.45 111.53 C 780.649 109.423 775.166 109.529 770.45 111.82 C 769.123 112.525 767.643 112.896 766.14 112.9 C 760.06 112.9 755.01 106.78 753.96 98.71 C 755.157 97.818 756.174 96.709 756.96 95.44 C 760.52 89.7 766.03 86.01 772.23 86.01 C 778.43 86.01 783.87 89.65 787.43 95.33 C 789.587 98.821 793.417 100.924 797.52 100.87 L 797.68 100.87 C 802.57 100.82 806.76 104.7 808.79 110.37 Z " fill="rgb(0,176,255)"/></g><g opacity="0.1"><path d=" M 827.3 85.02 L 817.48 91.24 L 823.48 80.4 C 821.79 79.055 819.7 78.312 817.54 78.29 L 817.38 78.29 C 816.71 78.299 816.041 78.249 815.38 78.14 L 812 80.25 L 813.43 77.65 C 811.067 76.832 809.025 75.284 807.6 73.23 L 801.6 77.01 L 805.36 70.17 C 801.88 65.99 797.18 63.43 792.02 63.43 C 785.82 63.43 780.31 67.11 776.74 72.85 C 774.598 76.344 770.746 78.42 766.65 78.29 L 766.32 78.29 C 759.48 78.29 753.94 86.04 753.94 95.6 C 753.94 105.16 759.48 112.92 766.32 112.92 C 767.822 112.91 769.3 112.54 770.63 111.84 C 775.344 109.543 780.828 109.433 785.63 111.54 C 789.682 113.359 794.318 113.359 798.37 111.54 C 803.132 109.481 808.552 109.587 813.23 111.83 C 814.545 112.518 816.006 112.882 817.49 112.89 C 824.33 112.89 829.87 105.13 829.87 95.57 C 829.911 91.893 829.028 88.266 827.3 85.02 Z " fill="rgb(0,176,255)"/></g><g opacity="0.1"><path d=" M 391.26 104.96 C 388.758 104.487 386.172 104.769 383.83 105.77 C 380.995 107.037 377.755 107.037 374.92 105.77 C 371.562 104.295 367.726 104.372 364.43 105.98 C 363.503 106.463 362.475 106.72 361.43 106.73 C 357.18 106.73 353.64 102.45 352.9 96.8 C 353.748 96.178 354.471 95.401 355.03 94.51 C 357.52 90.51 361.38 87.91 365.72 87.91 C 370.06 87.91 373.87 90.46 376.36 94.43 C 377.872 96.874 380.556 98.347 383.43 98.31 L 383.54 98.31 C 386.9 98.29 389.83 101.01 391.26 104.96 Z " fill="rgb(0,176,255)"/></g><g opacity="0.1"><path d=" M 404.21 87.23 L 397.34 91.59 L 401.51 84 C 400.331 83.056 398.87 82.535 397.36 82.52 L 397.24 82.52 C 396.764 82.529 396.289 82.492 395.82 82.41 L 393.49 83.89 L 394.49 82.07 C 392.838 81.495 391.411 80.414 390.41 78.98 L 386.24 81.62 L 388.88 76.84 C 386.635 73.941 383.206 72.204 379.54 72.11 C 375.2 72.11 371.34 74.69 368.85 78.71 C 367.348 81.157 364.65 82.611 361.78 82.52 L 361.55 82.52 C 356.76 82.52 352.88 87.94 352.88 94.64 C 352.88 101.34 356.76 106.76 361.55 106.76 C 362.597 106.752 363.626 106.491 364.55 106 C 367.845 104.401 371.676 104.328 375.03 105.8 C 376.44 106.443 377.97 106.784 379.52 106.8 C 381.046 106.797 382.555 106.477 383.95 105.86 C 387.282 104.418 391.076 104.491 394.35 106.06 C 395.276 106.545 396.305 106.799 397.35 106.8 C 402.13 106.8 406.01 101.37 406.01 94.68 C 406.05 92.084 405.431 89.521 404.21 87.23 Z " fill="rgb(0,176,255)"/></g><g opacity="0.1"><path d=" M 269.59 183.37 C 272.089 182.898 274.672 183.18 277.01 184.18 C 279.848 185.447 283.092 185.447 285.93 184.18 C 289.287 182.708 293.121 182.781 296.42 184.38 C 297.344 184.872 298.373 185.133 299.42 185.14 C 303.67 185.14 307.21 180.85 307.94 175.2 C 307.092 174.58 306.373 173.803 305.82 172.91 C 303.32 168.91 299.46 166.32 295.13 166.32 C 290.8 166.32 286.98 168.86 284.48 172.84 C 282.969 175.281 280.291 176.753 277.42 176.72 L 277.31 176.72 C 273.94 176.74 271 179.45 269.59 183.37 Z " fill="rgb(0,176,255)"/></g><g opacity="0.1"><path d=" M 256.63 165.67 L 263.51 170.03 L 259.33 162.45 C 260.512 161.503 261.976 160.979 263.49 160.96 L 263.6 160.96 C 264.079 160.967 264.557 160.933 265.03 160.86 L 267.36 162.33 L 266.36 160.52 C 268.008 159.944 269.433 158.863 270.43 157.43 L 274.6 160.07 L 272 155.28 C 274.246 152.383 277.676 150.65 281.34 150.56 C 285.67 150.56 289.54 153.14 292.03 157.16 C 293.53 159.603 296.224 161.057 299.09 160.97 L 299.33 160.97 C 304.11 160.97 307.99 166.4 307.99 173.09 C 307.99 179.78 304.11 185.21 299.33 185.21 C 298.284 185.205 297.255 184.948 296.33 184.46 C 293.034 182.852 289.198 182.775 285.84 184.25 C 284.435 184.899 282.908 185.24 281.36 185.25 C 279.831 185.249 278.319 184.929 276.92 184.31 C 273.591 182.868 269.801 182.941 266.53 184.51 C 265.604 184.995 264.575 185.249 263.53 185.25 C 258.74 185.25 254.86 179.83 254.86 173.13 C 254.813 170.534 255.422 167.968 256.63 165.67 L 256.63 165.67 Z " fill="rgb(0,176,255)"/></g><mask id="_mask_tDCRMbtpGOgo2Gu0lmc6neBWJCce8dIq" x="-200%" y="-200%" width="400%" height="400%"><rect x="-200%" y="-200%" width="400%" height="400%" style="fill:white;"/><path d=" M 664.31 490.26 C 666.92 485.42 663.96 479.5 660.56 475.19 C 657.16 470.88 653 466.39 653.09 460.9 C 653.22 453.01 661.6 448.34 668.29 444.16 C 673.258 441.045 677.84 437.352 681.94 433.16 C 683.655 431.546 685.073 429.644 686.13 427.54 C 687.52 424.46 687.48 420.94 687.39 417.54 Q 686.96 400.65 685.72 383.78" fill="black" stroke="none"/></mask><path d=" M 664.31 490.26 C 666.92 485.42 663.96 479.5 660.56 475.19 C 657.16 470.88 653 466.39 653.09 460.9 C 653.22 453.01 661.6 448.34 668.29 444.16 C 673.258 441.045 677.84 437.352 681.94 433.16 C 683.655 431.546 685.073 429.644 686.13 427.54 C 687.52 424.46 687.48 420.94 687.39 417.54 Q 686.96 400.65 685.72 383.78" fill="none"/><path d=" M 664.31 490.26 C 666.92 485.42 663.96 479.5 660.56 475.19 C 657.16 470.88 653 466.39 653.09 460.9 C 653.22 453.01 661.6 448.34 668.29 444.16 C 673.258 441.045 677.84 437.352 681.94 433.16 C 683.655 431.546 685.073 429.644 686.13 427.54 C 687.52 424.46 687.48 420.94 687.39 417.54 Q 686.96 400.65 685.72 383.78" fill="none" mask="url(#_mask_tDCRMbtpGOgo2Gu0lmc6neBWJCce8dIq)" vector-effect="non-scaling-stroke" stroke-width="8" stroke="rgb(63,61,86)" stroke-linejoin="miter" stroke-linecap="butt" stroke-miterlimit="10"/><path d=" M 698.45 383.22 C 698.254 379.028 695.936 375.225 692.3 373.13 L 689.54 378.58 L 689.63 371.98 C 684.494 370.468 678.97 372.449 675.965 376.88 C 672.96 381.311 673.164 387.176 676.469 391.388 C 679.774 395.6 685.422 397.193 690.441 395.328 C 695.46 393.463 698.697 388.568 698.45 383.22 L 698.45 383.22 Z " fill="rgb(0,176,255)"/><path d=" M 676.49 466.54 C 673.944 471.488 668.395 474.113 662.955 472.943 C 657.514 471.772 653.536 467.098 653.25 461.54 C 653.158 459.835 653.431 458.131 654.05 456.54 C 655.906 451.791 660.496 448.675 665.595 448.704 C 670.694 448.733 675.248 451.9 677.05 456.67 L 669.36 462.93 L 677.82 460.93 C 677.83 462.879 677.374 464.803 676.49 466.54 Z " fill="rgb(0,176,255)"/><path d=" M 670.41 442.64 C 664.156 442.935 658.676 438.487 657.678 432.306 C 656.68 426.125 660.481 420.179 666.51 418.49 L 666.44 423.56 L 669.23 418.04 L 669.23 418.04 C 673.624 417.835 677.795 419.989 680.17 423.692 C 682.545 427.395 682.764 432.084 680.745 435.992 C 678.725 439.9 674.774 442.435 670.38 442.64 L 670.41 442.64 Z " fill="rgb(0,176,255)"/><path d=" M 700.3 422.75 C 695.065 423.021 690.234 419.947 688.26 415.091 C 686.287 410.235 687.605 404.662 691.545 401.204 C 695.484 397.747 701.181 397.163 705.74 399.75 L 703.57 405.75 L 708 401.37 C 711.664 404.729 712.948 409.962 711.255 414.636 C 709.563 419.309 705.225 422.506 700.26 422.74 L 700.3 422.75 Z " fill="rgb(0,176,255)"/><g opacity="0.1"><path d=" M 696.79 386.5 C 693.95 386.81 691.19 387.69 688.33 387.87 C 685.47 388.05 682.33 387.36 680.55 385.15 C 679.713 383.862 678.952 382.527 678.27 381.15 C 677.493 379.936 676.428 378.934 675.17 378.23 C 672.996 382.489 673.485 387.623 676.425 391.394 C 679.365 395.166 684.223 396.894 688.884 395.826 C 693.546 394.757 697.167 391.086 698.17 386.41 C 697.72 386.42 697.25 386.45 696.79 386.5 Z " fill="rgb(0,0,0)"/></g><g opacity="0.1"><path d=" M 700.3 422.75 C 695.983 422.954 691.874 420.88 689.476 417.283 C 687.078 413.687 686.742 409.097 688.59 405.19 C 689.566 405.849 690.405 406.691 691.06 407.67 C 691.795 409.072 692.61 410.431 693.5 411.74 C 695.42 413.99 698.7 414.74 701.67 414.59 C 704.64 414.44 707.51 413.59 710.47 413.34 C 710.88 413.34 711.29 413.28 711.71 413.27 C 710.452 418.624 705.794 422.494 700.3 422.75 L 700.3 422.75 Z " fill="rgb(0,0,0)"/></g><g opacity="0.1"><path d=" M 670.41 442.64 C 666.139 442.84 662.069 440.809 659.661 437.276 C 657.253 433.742 656.852 429.212 658.6 425.31 C 659.615 425.978 660.499 426.825 661.21 427.81 C 662.016 429.245 662.908 430.631 663.88 431.96 C 665.95 434.27 669.45 435.09 672.59 434.96 C 675.73 434.83 678.59 434.15 681.59 433.96 C 680.06 438.917 675.592 442.387 670.41 442.64 Z " fill="rgb(0,0,0)"/></g><g opacity="0.1"><path d=" M 676.49 466.54 C 673.944 471.488 668.395 474.113 662.955 472.943 C 657.514 471.772 653.536 467.098 653.25 461.54 C 653.158 459.835 653.431 458.131 654.05 456.54 C 655.064 457.206 655.974 458.018 656.75 458.95 C 657.92 460.37 658.69 461.95 660.05 463.32 C 662.56 465.79 666.63 466.81 670.24 466.9 C 672.329 466.906 674.416 466.786 676.49 466.54 L 676.49 466.54 Z " fill="rgb(0,0,0)"/></g><mask id="_mask_M7wU9pnRxAtLW0va5qrh4f2pdYMNv5nL" x="-200%" y="-200%" width="400%" height="400%"><rect x="-200%" y="-200%" width="400%" height="400%" style="fill:white;"/><path d=" M 54.31 418.26 C 56.92 413.42 53.96 407.5 50.56 403.19 C 47.16 398.88 43 394.37 43.09 388.9 C 43.22 381.01 51.6 376.34 58.29 372.16 C 63.258 369.045 67.84 365.352 71.94 361.16 C 73.655 359.546 75.073 357.644 76.13 355.54 C 77.52 352.46 77.48 348.94 77.39 345.54 Q 76.95 328.65 75.72 311.78" fill="black" stroke="none"/></mask><path d=" M 54.31 418.26 C 56.92 413.42 53.96 407.5 50.56 403.19 C 47.16 398.88 43 394.37 43.09 388.9 C 43.22 381.01 51.6 376.34 58.29 372.16 C 63.258 369.045 67.84 365.352 71.94 361.16 C 73.655 359.546 75.073 357.644 76.13 355.54 C 77.52 352.46 77.48 348.94 77.39 345.54 Q 76.95 328.65 75.72 311.78" fill="none"/><path d=" M 54.31 418.26 C 56.92 413.42 53.96 407.5 50.56 403.19 C 47.16 398.88 43 394.37 43.09 388.9 C 43.22 381.01 51.6 376.34 58.29 372.16 C 63.258 369.045 67.84 365.352 71.94 361.16 C 73.655 359.546 75.073 357.644 76.13 355.54 C 77.52 352.46 77.48 348.94 77.39 345.54 Q 76.95 328.65 75.72 311.78" fill="none" mask="url(#_mask_M7wU9pnRxAtLW0va5qrh4f2pdYMNv5nL)" vector-effect="non-scaling-stroke" stroke-width="8" stroke="rgb(63,61,86)" stroke-linejoin="miter" stroke-linecap="butt" stroke-miterlimit="10"/><path d=" M 88.45 311.22 C 88.254 307.028 85.936 303.225 82.3 301.13 L 79.54 306.58 L 79.63 299.98 C 74.494 298.468 68.97 300.449 65.965 304.88 C 62.96 309.311 63.164 315.176 66.469 319.388 C 69.774 323.6 75.422 325.193 80.441 323.328 C 85.46 321.463 88.697 316.568 88.45 311.22 Z " fill="rgb(0,176,255)"/><path d=" M 66.49 394.54 C 63.944 399.488 58.395 402.113 52.955 400.943 C 47.514 399.772 43.536 395.098 43.25 389.54 C 43.158 387.835 43.431 386.131 44.05 384.54 C 45.906 379.791 50.496 376.675 55.595 376.704 C 60.694 376.733 65.248 379.9 67.05 384.67 L 59.36 390.93 L 67.82 388.93 C 67.83 390.879 67.374 392.803 66.49 394.54 L 66.49 394.54 Z " fill="rgb(0,176,255)"/><path d=" M 60.41 370.64 C 54.156 370.935 48.676 366.487 47.678 360.306 C 46.68 354.125 50.481 348.179 56.51 346.49 L 56.44 351.56 L 59.23 346.04 L 59.23 346.04 C 63.624 345.835 67.795 347.989 70.17 351.692 C 72.545 355.395 72.764 360.084 70.745 363.992 C 68.725 367.9 64.774 370.435 60.38 370.64 L 60.41 370.64 Z " fill="rgb(0,176,255)"/><path d=" M 90.3 350.75 C 85.065 351.021 80.234 347.947 78.26 343.091 C 76.287 338.235 77.605 332.662 81.545 329.204 C 85.484 325.747 91.181 325.163 95.74 327.75 L 93.57 333.75 L 98 329.37 C 101.664 332.729 102.948 337.962 101.255 342.636 C 99.563 347.309 95.225 350.506 90.26 350.74 L 90.3 350.75 Z " fill="rgb(0,176,255)"/><g opacity="0.1"><path d=" M 86.79 314.5 C 83.95 314.81 81.19 315.69 78.33 315.87 C 75.47 316.05 72.33 315.36 70.55 313.15 C 69.713 311.862 68.952 310.527 68.27 309.15 C 67.493 307.936 66.428 306.934 65.17 306.23 C 62.996 310.489 63.485 315.623 66.425 319.394 C 69.365 323.166 74.223 324.894 78.884 323.826 C 83.546 322.757 87.167 319.086 88.17 314.41 C 87.72 314.42 87.25 314.45 86.79 314.5 Z " fill="rgb(0,0,0)"/></g><g opacity="0.1"><path d=" M 90.3 350.75 C 85.983 350.954 81.874 348.88 79.476 345.283 C 77.078 341.687 76.742 337.097 78.59 333.19 C 79.566 333.849 80.405 334.691 81.06 335.67 C 81.795 337.072 82.61 338.431 83.5 339.74 C 85.42 341.99 88.7 342.74 91.67 342.59 C 94.64 342.44 97.51 341.59 100.47 341.34 C 100.88 341.34 101.29 341.28 101.71 341.27 C 100.452 346.624 95.794 350.494 90.3 350.75 L 90.3 350.75 Z " fill="rgb(0,0,0)"/></g><g opacity="0.1"><path d=" M 60.41 370.64 C 56.139 370.84 52.069 368.809 49.661 365.276 C 47.253 361.742 46.852 357.212 48.6 353.31 C 49.615 353.978 50.499 354.825 51.21 355.81 C 52.016 357.245 52.908 358.631 53.88 359.96 C 55.95 362.27 59.45 363.09 62.59 362.96 C 65.73 362.83 68.59 362.15 71.59 361.96 C 70.06 366.917 65.592 370.387 60.41 370.64 L 60.41 370.64 Z " fill="rgb(0,0,0)"/></g><g opacity="0.1"><path d=" M 66.49 394.54 C 63.944 399.488 58.395 402.113 52.955 400.943 C 47.514 399.772 43.536 395.098 43.25 389.54 C 43.158 387.835 43.431 386.131 44.05 384.54 C 45.064 385.206 45.974 386.018 46.75 386.95 C 47.92 388.37 48.69 389.95 50.05 391.32 C 52.56 393.79 56.63 394.81 60.24 394.9 C 62.329 394.906 64.416 394.786 66.49 394.54 L 66.49 394.54 Z " fill="rgb(0,0,0)"/></g><mask id="_mask_Cv5NNriAzCcpQzOKWbmNiRCN6STGRIlR" x="-200%" y="-200%" width="400%" height="400%"><rect x="-200%" y="-200%" width="400%" height="400%" style="fill:white;"/><path d=" M 460.52 335.89 C 457.91 331.06 460.87 325.14 464.28 320.83 C 467.69 316.52 471.83 312.03 471.74 306.54 C 471.62 298.64 463.24 293.98 456.54 289.8 C 451.574 286.686 446.995 282.994 442.9 278.8 C 441.177 277.195 439.755 275.295 438.7 273.19 C 437.32 270.1 437.36 266.59 437.44 263.19 Q 437.89 246.3 439.11 229.43" fill="black" stroke="none"/></mask><path d=" M 460.52 335.89 C 457.91 331.06 460.87 325.14 464.28 320.83 C 467.69 316.52 471.83 312.03 471.74 306.54 C 471.62 298.64 463.24 293.98 456.54 289.8 C 451.574 286.686 446.995 282.994 442.9 278.8 C 441.177 277.195 439.755 275.295 438.7 273.19 C 437.32 270.1 437.36 266.59 437.44 263.19 Q 437.89 246.3 439.11 229.43" fill="none"/><path d=" M 460.52 335.89 C 457.91 331.06 460.87 325.14 464.28 320.83 C 467.69 316.52 471.83 312.03 471.74 306.54 C 471.62 298.64 463.24 293.98 456.54 289.8 C 451.574 286.686 446.995 282.994 442.9 278.8 C 441.177 277.195 439.755 275.295 438.7 273.19 C 437.32 270.1 437.36 266.59 437.44 263.19 Q 437.89 246.3 439.11 229.43" fill="none" mask="url(#_mask_Cv5NNriAzCcpQzOKWbmNiRCN6STGRIlR)" vector-effect="non-scaling-stroke" stroke-width="8" stroke="rgb(63,61,86)" stroke-linejoin="miter" stroke-linecap="butt" stroke-miterlimit="10"/><path d=" M 426.39 228.86 C 426.582 224.67 428.897 220.866 432.53 218.77 L 435.29 224.22 L 435.21 217.62 C 436.524 217.238 437.892 217.073 439.26 217.13 C 446.05 217.446 451.299 223.207 450.984 229.998 C 450.668 236.788 444.909 242.038 438.118 241.724 C 431.328 241.409 426.077 235.651 426.39 228.86 Z " fill="rgb(0,176,255)"/><path d=" M 448.34 312.18 C 451 317.358 456.923 319.965 462.538 318.429 C 468.153 316.894 471.924 311.635 471.578 305.824 C 471.232 300.013 466.863 295.239 461.106 294.38 C 455.348 293.521 449.777 296.813 447.75 302.27 L 455.44 308.53 L 446.98 306.53 C 446.973 308.495 447.44 310.433 448.34 312.18 L 448.34 312.18 Z " fill="rgb(0,176,255)"/><path d=" M 454.42 288.28 C 460.677 288.581 466.162 284.135 467.163 277.952 C 468.164 271.768 464.362 265.819 458.33 264.13 L 458.39 269.2 L 455.6 263.68 L 455.6 263.68 C 448.81 263.346 443.034 268.58 442.7 275.37 C 442.63 276.79 442.809 278.212 443.23 279.57 C 444.743 284.548 449.223 288.035 454.42 288.28 L 454.42 288.28 Z " fill="rgb(0,176,255)"/><path d=" M 424.54 268.37 C 429.774 268.637 434.603 265.56 436.573 260.704 C 438.543 255.848 437.223 250.277 433.283 246.821 C 429.343 243.366 423.648 242.783 419.09 245.37 L 421.27 251.37 L 416.79 247.08 C 414.376 249.267 412.936 252.327 412.79 255.58 C 412.73 256.719 412.835 257.861 413.1 258.97 C 414.389 264.305 419.057 268.14 424.54 268.37 L 424.54 268.37 Z " fill="rgb(0,176,255)"/><g opacity="0.1"><path d=" M 428.05 232.14 C 430.89 232.45 433.65 233.33 436.5 233.51 C 439.35 233.69 442.5 233 444.29 230.79 C 445.124 229.502 445.882 228.166 446.56 226.79 C 447.341 225.576 448.409 224.573 449.67 223.87 C 451.849 228.131 451.36 233.268 448.419 237.042 C 445.477 240.816 440.614 242.543 435.95 241.471 C 431.287 240.398 427.667 236.72 426.67 232.04 C 427.12 232.05 427.58 232.09 428.05 232.14 Z " fill="rgb(0,0,0)"/></g><g opacity="0.1"><path d=" M 424.54 268.37 C 428.855 268.568 432.959 266.492 435.356 262.898 C 437.753 259.304 438.092 254.717 436.25 250.81 C 435.271 251.469 434.429 252.311 433.77 253.29 C 433.035 254.692 432.22 256.051 431.33 257.36 C 429.42 259.61 426.14 260.36 423.17 260.21 C 420.2 260.06 417.33 259.21 414.37 258.96 C 413.96 258.96 413.54 258.9 413.13 258.89 C 414.385 264.246 419.045 268.117 424.54 268.37 Z " fill="rgb(0,0,0)"/></g><g opacity="0.1"><path d=" M 454.42 288.28 C 458.693 288.486 462.767 286.456 465.176 282.921 C 467.585 279.385 467.985 274.852 466.23 270.95 C 465.217 271.616 464.335 272.463 463.63 273.45 C 462.824 274.885 461.932 276.271 460.96 277.6 C 458.88 279.91 455.39 280.73 452.24 280.6 C 449.09 280.47 446.24 279.79 443.24 279.6 C 444.762 284.562 449.235 288.035 454.42 288.28 L 454.42 288.28 Z " fill="rgb(0,0,0)"/></g><g opacity="0.1"><path d=" M 448.34 312.18 C 451.34 317.963 458.325 320.407 464.276 317.756 C 470.227 315.106 473.082 308.278 470.79 302.18 C 469.772 302.84 468.861 303.653 468.09 304.59 C 466.92 306.01 466.09 307.59 464.79 308.96 C 462.27 311.43 458.21 312.45 454.59 312.54 C 452.501 312.541 450.415 312.421 448.34 312.18 Z " fill="rgb(0,0,0)"/></g><circle vector-effect="non-scaling-stroke" cx="779.73" cy="238.18" r="99.96000000000004" fill="rgb(63,61,86)"/><path d=" M 822.64 263.96 C 819.16 260.48 810.79 255.23 806.64 253.27 C 801.85 250.97 800.09 251.01 796.7 253.46 C 793.88 255.46 792.05 257.39 788.81 256.68 C 785.57 255.97 779.15 251.13 772.94 244.94 C 766.73 238.75 761.91 232.37 761.22 229.08 C 760.53 225.79 762.43 224 764.45 221.18 C 766.89 217.79 766.96 216.03 764.64 211.24 C 762.64 207.09 757.45 198.74 753.94 195.24 C 750.43 191.74 749.67 192.51 747.75 193.24 C 745.774 194.068 743.876 195.072 742.08 196.24 C 738.6 198.57 736.65 200.51 735.28 203.43 C 733.91 206.35 732.36 211.77 740.33 225.96 C 746.209 236.815 753.656 246.745 762.43 255.43 L 762.43 255.43 L 762.43 255.43 C 771.144 264.224 781.108 271.684 792 277.57 C 806.18 285.57 811.61 283.98 814.53 282.62 C 817.45 281.26 819.39 279.33 821.71 275.82 C 822.88 274.025 823.884 272.127 824.71 270.15 C 825.37 268.23 826.15 267.45 822.64 263.96 Z " fill="rgb(0,176,255)"/><g opacity="0.1"><path d=" M 779.73 138.23 C 739.275 138.21 702.793 162.567 687.302 199.939 C 671.811 237.311 680.363 280.334 708.969 308.941 C 737.576 337.547 780.599 346.099 817.971 330.608 C 855.343 315.117 879.7 278.635 879.68 238.18 C 879.652 182.991 834.919 138.258 779.73 138.23 L 779.73 138.23 Z  M 779.73 324.85 C 731.863 324.85 693.06 286.047 693.06 238.18 C 693.06 190.313 731.863 151.51 779.73 151.51 C 827.597 151.51 866.4 190.313 866.4 238.18 C 866.4 286.047 827.597 324.85 779.73 324.85 L 779.73 324.85 Z " fill="rgb(0,0,0)"/></g><circle vector-effect="non-scaling-stroke" cx="550.08" cy="390.01" r="99.96000000000001" fill="rgb(63,61,86)"/><path d=" M 606.93 359.81 L 577 390.26 C 576.894 390.362 576.833 390.503 576.833 390.65 C 576.833 390.797 576.894 390.938 577 391.04 L 598 413.37 C 599.027 414.405 599.333 415.955 598.776 417.303 C 598.219 418.65 596.908 419.532 595.45 419.54 C 594.49 419.538 593.57 419.157 592.89 418.48 L 572 396.23 C 571.778 396.011 571.422 396.011 571.2 396.23 L 566.11 401.37 C 561.9 405.675 556.132 408.102 550.11 408.1 C 543.975 408.072 538.108 405.578 533.83 401.18 L 528.94 396.18 C 528.718 395.961 528.362 395.961 528.14 396.18 L 507.3 418.38 C 506.623 419.058 505.704 419.44 504.745 419.44 C 503.786 419.44 502.867 419.058 502.19 418.38 C 501.509 417.704 501.126 416.784 501.126 415.825 C 501.126 414.866 501.509 413.946 502.19 413.27 L 523.11 390.99 C 523.302 390.765 523.302 390.435 523.11 390.21 L 493.18 359.76 C 493.023 359.602 492.785 359.554 492.579 359.64 C 492.373 359.725 492.239 359.927 492.24 360.15 L 492.24 421.08 C 492.256 425.983 496.227 429.954 501.13 429.97 L 599 429.97 C 603.903 429.954 607.874 425.983 607.89 421.08 L 607.89 360.2 C 607.9 359.968 607.763 359.754 607.548 359.666 C 607.332 359.579 607.085 359.636 606.93 359.81 Z " fill="rgb(0,176,255)"/><path d=" M 550.08 400.87 C 554.179 400.91 558.119 399.286 561 396.37 L 604.59 352 C 603.043 350.718 601.099 350.012 599.09 350 L 501.15 350 C 499.14 350.007 497.195 350.714 495.65 352 L 539.25 396.37 C 542.105 399.27 546.011 400.893 550.08 400.87 Z " fill="rgb(0,176,255)"/><g opacity="0.1"><path d=" M 548.82 290.06 C 508.365 290.04 471.883 314.397 456.392 351.769 C 440.901 389.141 449.453 432.164 478.059 460.771 C 506.666 489.377 549.689 497.929 587.061 482.438 C 624.433 466.947 648.79 430.465 648.77 390.01 C 648.742 334.821 604.009 290.088 548.82 290.06 L 548.82 290.06 Z  M 548.82 476.68 C 513.765 476.68 482.162 455.564 468.747 423.177 C 455.332 390.791 462.748 353.513 487.535 328.725 C 512.323 303.938 549.601 296.522 581.987 309.937 C 614.374 323.352 635.49 354.955 635.49 390.01 C 635.49 437.877 596.687 476.68 548.82 476.68 L 548.82 476.68 Z " fill="rgb(0,0,0)"/></g><circle vector-effect="non-scaling-stroke" cx="312.85" cy="315.36" r="99.95999999999998" fill="rgb(63,61,86)"/><path d=" M 312.85 267.53 L 273 359.47 L 276.72 363.19 L 312.86 347.25 L 349 363.19 L 352.72 359.47 L 312.85 267.53 Z " fill="rgb(0,176,255)"/><g opacity="0.1"><path d=" M 312.85 215.37 C 272.399 215.35 235.92 239.701 220.426 277.067 C 204.933 314.433 213.476 357.453 242.072 386.063 C 270.668 414.673 313.683 423.238 351.057 407.763 C 388.43 392.288 412.8 355.821 412.8 315.37 C 412.8 260.161 368.059 215.398 312.85 215.37 L 312.85 215.37 Z  M 312.85 401.99 C 277.791 401.99 246.185 380.868 232.773 348.476 C 219.361 316.083 226.785 278.801 251.583 254.017 C 276.381 229.234 313.667 221.831 346.052 235.262 C 378.437 248.692 399.54 280.311 399.52 315.37 C 399.514 363.233 360.713 402.03 312.85 402.03 L 312.85 401.99 Z " fill="rgb(0,0,0)"/></g><g style="opacity:0.1;"><g opacity="0.1"><path d=" M 760.2 465.62 L 759.98 465.62 C 760.829 465.785 761.701 465.785 762.55 465.62 L 762.8 465.62 C 761.938 465.494 761.062 465.494 760.2 465.62 Z " fill="rgb(0,0,0)"/></g><g opacity="0.1"><path d=" M 780.83 444.2 C 779.42 447.37 777.34 464.54 776.97 467.95 C 778.35 468.31 779.26 468.57 779.26 468.57 C 779.26 468.57 781.42 448.37 783 444.79 L 780.83 444.2 Z " fill="rgb(0,0,0)"/></g></g><mask id="_mask_4wnQu25vRLceBbf7Vm1ULNImX1eCPhmV" x="-200%" y="-200%" width="400%" height="400%"><rect x="-200%" y="-200%" width="400%" height="400%" style="fill:white;"/><path d=" M 836.39 414.37 C 839 409.54 836.04 403.61 832.63 399.3 C 829.22 394.99 825.08 390.51 825.17 385.01 C 825.29 377.12 833.67 372.46 840.37 368.27 C 845.337 365.157 849.916 361.465 854.01 357.27 C 855.73 355.663 857.152 353.763 858.21 351.66 C 859.59 348.57 859.55 345.06 859.47 341.66 Q 859.03 324.76 857.8 307.9" fill="black" stroke="none"/></mask><path d=" M 836.39 414.37 C 839 409.54 836.04 403.61 832.63 399.3 C 829.22 394.99 825.08 390.51 825.17 385.01 C 825.29 377.12 833.67 372.46 840.37 368.27 C 845.337 365.157 849.916 361.465 854.01 357.27 C 855.73 355.663 857.152 353.763 858.21 351.66 C 859.59 348.57 859.55 345.06 859.47 341.66 Q 859.03 324.76 857.8 307.9" fill="none"/><path d=" M 836.39 414.37 C 839 409.54 836.04 403.61 832.63 399.3 C 829.22 394.99 825.08 390.51 825.17 385.01 C 825.29 377.12 833.67 372.46 840.37 368.27 C 845.337 365.157 849.916 361.465 854.01 357.27 C 855.73 355.663 857.152 353.763 858.21 351.66 C 859.59 348.57 859.55 345.06 859.47 341.66 Q 859.03 324.76 857.8 307.9" fill="none" mask="url(#_mask_4wnQu25vRLceBbf7Vm1ULNImX1eCPhmV)" vector-effect="non-scaling-stroke" stroke-width="8" stroke="rgb(63,61,86)" stroke-linejoin="miter" stroke-linecap="butt" stroke-miterlimit="10"/><path d=" M 870.52 307.3 C 870.326 303.113 868.012 299.313 864.38 297.22 L 861.62 302.67 L 861.7 296.07 C 860.388 295.678 859.018 295.513 857.65 295.58 C 852.676 295.812 848.332 299.017 846.643 303.702 C 844.954 308.386 846.254 313.626 849.935 316.978 C 853.617 320.331 858.955 321.135 863.461 319.017 C 867.967 316.898 870.753 312.274 870.52 307.3 L 870.52 307.3 Z " fill="rgb(0,176,255)"/><path d=" M 848.57 390.63 C 845.909 395.806 839.986 398.411 834.373 396.875 C 828.759 395.338 824.988 390.08 825.334 384.27 C 825.679 378.461 830.047 373.687 835.803 372.827 C 841.559 371.966 847.131 375.255 849.16 380.71 L 841.47 386.97 L 849.93 384.97 C 849.938 386.939 849.472 388.88 848.57 390.63 L 848.57 390.63 Z " fill="rgb(0,176,255)"/><path d=" M 842.49 366.72 C 836.233 367.021 830.748 362.575 829.747 356.392 C 828.746 350.208 832.548 344.259 838.58 342.57 L 838.52 347.64 L 841.31 342.13 L 841.31 342.13 C 848.102 341.819 853.862 347.069 854.18 353.86 C 854.335 357.121 853.186 360.311 850.988 362.725 C 848.79 365.139 845.722 366.58 842.46 366.73 L 842.49 366.72 Z " fill="rgb(0,176,255)"/><path d=" M 872.37 346.84 C 867.136 347.107 862.307 344.03 860.337 339.174 C 858.367 334.318 859.687 328.747 863.627 325.291 C 867.567 321.836 873.262 321.253 877.82 323.84 L 875.64 329.84 L 880.12 325.54 C 882.531 327.729 883.97 330.787 884.12 334.04 C 884.18 335.179 884.076 336.321 883.81 337.43 C 882.522 342.767 877.855 346.605 872.37 346.84 Z " fill="rgb(0,176,255)"/><g opacity="0.1"><path d=" M 868.87 310.58 C 866.03 310.9 863.26 311.78 860.41 311.96 C 857.56 312.14 854.41 311.45 852.62 309.23 C 851.784 307.943 851.026 306.608 850.35 305.23 C 849.57 304.019 848.506 303.016 847.25 302.31 C 845.071 306.571 845.56 311.708 848.501 315.482 C 851.443 319.256 856.306 320.983 860.97 319.911 C 865.633 318.838 869.253 315.16 870.25 310.48 C 869.79 310.5 869.33 310.53 868.87 310.58 Z " fill="rgb(0,0,0)"/></g><g opacity="0.1"><path d=" M 872.37 346.84 C 868.055 347.038 863.951 344.962 861.554 341.368 C 859.157 337.774 858.818 333.187 860.66 329.28 C 861.639 329.935 862.481 330.774 863.14 331.75 C 863.871 333.154 864.686 334.513 865.58 335.82 C 867.49 338.08 870.77 338.82 873.74 338.68 C 876.71 338.54 879.58 337.68 882.54 337.43 C 882.95 337.43 883.37 337.36 883.78 337.35 C 882.525 342.708 877.867 346.583 872.37 346.84 L 872.37 346.84 Z " fill="rgb(0,0,0)"/></g><g opacity="0.1"><path d=" M 842.49 366.72 C 838.211 366.929 834.132 364.897 831.721 361.356 C 829.31 357.815 828.916 353.274 830.68 349.37 C 831.689 350.041 832.57 350.888 833.28 351.87 C 834.28 353.22 834.83 354.78 835.95 356.02 C 838.03 358.34 841.52 359.15 844.67 359.08 C 847.82 359.01 850.67 358.26 853.67 358.03 C 852.149 362.995 847.676 366.471 842.49 366.72 Z " fill="rgb(0,0,0)"/></g><g opacity="0.1"><path d=" M 848.57 390.63 C 845.524 396.328 838.594 398.705 832.692 396.076 C 826.79 393.447 823.921 386.705 826.12 380.63 C 827.136 381.293 828.046 382.105 828.82 383.04 C 830 384.47 830.77 386.04 832.12 387.42 C 834.64 389.89 838.7 390.9 842.32 391 C 844.409 390.998 846.496 390.874 848.57 390.63 L 848.57 390.63 Z " fill="rgb(0,0,0)"/></g><mask id="_mask_ce5RLALqwSYACLJSq4A3AcQZTU1I699x" x="-200%" y="-200%" width="400%" height="400%"><rect x="-200%" y="-200%" width="400%" height="400%" style="fill:white;"/><path d=" M 995.39 566.37 C 998 561.54 995.04 555.61 991.63 551.3 C 988.22 546.99 984.08 542.51 984.17 537.01 C 984.29 529.12 992.67 524.46 999.37 520.27 C 1004.337 517.157 1008.916 513.465 1013.01 509.27 C 1014.73 507.663 1016.152 505.763 1017.21 503.66 C 1018.59 500.57 1018.55 497.06 1018.47 493.66 Q 1018.04 476.76 1016.8 459.9" fill="black" stroke="none"/></mask><path d=" M 995.39 566.37 C 998 561.54 995.04 555.61 991.63 551.3 C 988.22 546.99 984.08 542.51 984.17 537.01 C 984.29 529.12 992.67 524.46 999.37 520.27 C 1004.337 517.157 1008.916 513.465 1013.01 509.27 C 1014.73 507.663 1016.152 505.763 1017.21 503.66 C 1018.59 500.57 1018.55 497.06 1018.47 493.66 Q 1018.04 476.76 1016.8 459.9" fill="none"/><path d=" M 995.39 566.37 C 998 561.54 995.04 555.61 991.63 551.3 C 988.22 546.99 984.08 542.51 984.17 537.01 C 984.29 529.12 992.67 524.46 999.37 520.27 C 1004.337 517.157 1008.916 513.465 1013.01 509.27 C 1014.73 507.663 1016.152 505.763 1017.21 503.66 C 1018.59 500.57 1018.55 497.06 1018.47 493.66 Q 1018.04 476.76 1016.8 459.9" fill="none" mask="url(#_mask_ce5RLALqwSYACLJSq4A3AcQZTU1I699x)" vector-effect="non-scaling-stroke" stroke-width="8" stroke="rgb(63,61,86)" stroke-linejoin="miter" stroke-linecap="butt" stroke-miterlimit="10"/><path d=" M 1029.52 459.3 C 1029.326 455.113 1027.012 451.313 1023.38 449.22 L 1020.62 454.67 L 1020.7 448.07 C 1019.404 447.684 1018.051 447.518 1016.7 447.58 C 1011.726 447.812 1007.382 451.017 1005.693 455.702 C 1004.004 460.386 1005.304 465.626 1008.985 468.978 C 1012.667 472.331 1018.005 473.135 1022.511 471.017 C 1027.017 468.898 1029.803 464.274 1029.57 459.3 L 1029.52 459.3 Z " fill="rgb(0,176,255)"/><path d=" M 1007.57 542.63 C 1004.909 547.806 998.986 550.411 993.373 548.875 C 987.759 547.338 983.988 542.08 984.334 536.27 C 984.679 530.461 989.047 525.687 994.803 524.827 C 1000.559 523.966 1006.131 527.255 1008.16 532.71 L 1000.47 538.97 L 1008.93 536.97 C 1008.938 538.939 1008.472 540.88 1007.57 542.63 Z " fill="rgb(0,176,255)"/><path d=" M 1001.49 518.72 C 995.233 519.021 989.748 514.575 988.747 508.392 C 987.746 502.208 991.548 496.259 997.58 494.57 L 997.52 499.64 L 1000.31 494.13 L 1000.31 494.13 C 1007.102 493.819 1012.862 499.069 1013.18 505.86 C 1013.335 509.121 1012.186 512.311 1009.988 514.725 C 1007.79 517.139 1004.722 518.58 1001.46 518.73 L 1001.49 518.72 Z " fill="rgb(0,176,255)"/><path d=" M 1031.37 498.84 C 1026.136 499.107 1021.307 496.03 1019.337 491.174 C 1017.367 486.318 1018.687 480.747 1022.627 477.291 C 1026.567 473.836 1032.262 473.253 1036.82 475.84 L 1034.64 481.84 L 1039.12 477.54 C 1041.531 479.729 1042.97 482.787 1043.12 486.04 C 1043.18 487.179 1043.076 488.321 1042.81 489.43 C 1041.522 494.767 1036.855 498.605 1031.37 498.84 Z " fill="rgb(0,176,255)"/><g opacity="0.1"><path d=" M 1027.87 462.58 C 1025.03 462.9 1022.26 463.78 1019.41 463.96 C 1016.56 464.14 1013.41 463.45 1011.62 461.23 C 1010.784 459.943 1010.026 458.608 1009.35 457.23 C 1008.57 456.019 1007.506 455.016 1006.25 454.31 C 1004.071 458.571 1004.56 463.708 1007.501 467.482 C 1010.443 471.256 1015.306 472.983 1019.97 471.911 C 1024.633 470.838 1028.253 467.16 1029.25 462.48 C 1028.79 462.5 1028.33 462.53 1027.87 462.58 Z " fill="rgb(0,0,0)"/></g><g opacity="0.1"><path d=" M 1031.37 498.84 C 1027.055 499.038 1022.951 496.962 1020.554 493.368 C 1018.157 489.774 1017.818 485.187 1019.66 481.28 C 1020.639 481.935 1021.481 482.774 1022.14 483.75 C 1022.871 485.154 1023.686 486.513 1024.58 487.82 C 1026.49 490.08 1029.77 490.82 1032.74 490.68 C 1035.71 490.54 1038.58 489.68 1041.54 489.43 C 1041.95 489.43 1042.37 489.36 1042.78 489.35 C 1041.525 494.708 1036.867 498.583 1031.37 498.84 L 1031.37 498.84 Z " fill="rgb(0,0,0)"/></g><g opacity="0.1"><path d=" M 1001.49 518.72 C 997.211 518.929 993.132 516.897 990.721 513.356 C 988.31 509.815 987.916 505.274 989.68 501.37 C 990.689 502.041 991.57 502.888 992.28 503.87 C 993.28 505.22 993.83 506.78 994.95 508.02 C 997.03 510.34 1000.52 511.15 1003.67 511.08 C 1006.82 511.01 1009.67 510.26 1012.67 510.03 C 1011.149 514.995 1006.676 518.471 1001.49 518.72 Z " fill="rgb(0,0,0)"/></g><g opacity="0.1"><path d=" M 1007.57 542.63 C 1004.524 548.328 997.594 550.705 991.692 548.076 C 985.79 545.447 982.921 538.705 985.12 532.63 C 986.136 533.293 987.046 534.105 987.82 535.04 C 989 536.47 989.82 538.04 991.12 539.42 C 993.64 541.89 997.7 542.9 1001.32 543 C 1003.409 542.998 1005.496 542.874 1007.57 542.63 L 1007.57 542.63 Z " fill="rgb(0,0,0)"/></g></g></svg>