<?xml version="1.0" encoding="UTF-8" standalone="no"?><!-- Generator: Gravit.io --><svg xmlns="http://www.w3.org/2000/svg" xmlns:xlink="http://www.w3.org/1999/xlink" style="isolation:isolate" viewBox="0 0 676 676" width="676pt" height="676pt"><defs><clipPath id="_clipPath_yMr5XkYLJ54VwRasuxt4NpLgro5zvdV5"><rect width="676" height="676"/></clipPath></defs><g clip-path="url(#_clipPath_yMr5XkYLJ54VwRasuxt4NpLgro5zvdV5)"><path d=" M 676 338 C 676.06 383.755 666.799 429.042 648.78 471.1 L 647.66 473.68 C 584.935 616.376 432.889 697.805 279.35 670.93 Q 276.305 670.39 273.27 669.81 C 252.363 665.757 231.891 659.72 212.13 651.78 Q 207.315 649.845 202.57 647.77 C 200.41 646.83 198.25 645.86 196.11 644.86 C 76.585 589.463 0.07 469.739 0 338 C 0 151.33 151.33 0 338 0 C 524.67 0 676 151.33 676 338 Z " fill="rgb(0,176,255)"/><g opacity="0.2"><path d=" M 279.35 670.93 Q 276.305 670.39 273.27 669.81 C 271.95 631.5 267.42 552.87 251.97 470.52 C 243.52 425.45 231.79 379.25 215.52 337.95 C 209.946 323.66 203.579 309.691 196.45 296.11 C 180.01 265.06 160.07 238.92 135.89 221.21 L 139.45 216.35 Q 169.615 238.46 193.67 278.43 Q 200.885 290.4 207.53 303.97 Q 214.655 318.49 221.12 334.8 Q 225.245 345.18 229.09 356.28 Q 245.83 404.475 257.55 466.26 Q 260.145 479.91 262.49 494.23 C 274.6 568.2 278.25 636.59 279.35 670.93 Z " fill="rgb(0,0,0)"/></g><g opacity="0.2"><path d=" M 202.57 647.77 C 200.41 646.83 198.25 645.86 196.11 644.86 C 194.02 622.16 190.18 594 183.16 567.27 C 180.085 555.265 176.138 543.5 171.35 532.07 C 163.34 513.32 152.97 497.38 139.56 487.55 L 143.12 482.7 C 157.16 492.98 167.99 509.23 176.36 528.24 C 185.79 549.66 192.08 574.59 196.27 598.41 C 199.38 616.1 201.34 633.19 202.57 647.77 Z " fill="rgb(0,0,0)"/></g><g opacity="0.2"><circle vector-effect="non-scaling-stroke" cx="102.26174" cy="190.98167" r="30.088570000000004" fill="rgb(0,0,0)"/></g><g opacity="0.2"><circle vector-effect="non-scaling-stroke" cx="111.9514" cy="449.99083" r="30.088570000000004" fill="rgb(0,0,0)"/></g><g opacity="0.2"><path d=" M 221.714 241.521 C 215.334 277.519 229.419 310.114 229.419 310.114 C 229.419 310.114 253.849 284.345 260.229 248.348 C 266.61 212.351 252.525 179.756 252.525 179.756 C 252.525 179.756 228.095 205.524 221.714 241.521 Z " fill="rgb(0,0,0)"/></g><g opacity="0.2"><path d=" M 121.718 326.971 C 156.053 339.526 190.554 331.469 190.554 331.469 C 190.554 331.469 169.388 303.056 135.053 290.501 C 100.718 277.946 66.217 286.003 66.217 286.003 C 66.217 286.003 87.383 314.416 121.718 326.971 Z " fill="rgb(0,0,0)"/></g><g opacity="0.2"><path d=" M 115.895 556.333 C 139.961 565.133 164.178 559.392 164.178 559.392 C 164.178 559.392 149.377 539.384 125.311 530.584 C 101.245 521.784 77.028 527.525 77.028 527.525 C 77.028 527.525 91.829 547.533 115.895 556.333 Z " fill="rgb(0,0,0)"/></g><circle vector-effect="non-scaling-stroke" cx="337.30608000000007" cy="281.0788" r="131.77014000000003" fill="rgb(255,184,184)"/><path d=" M 285.833 381.965 C 285.833 381.965 302.305 460.204 302.305 468.439 C 302.305 468.439 380.543 513.735 380.543 513.735 L 450.546 501.382 L 475.253 427.261 C 475.253 427.261 434.075 365.494 434.075 340.787 L 285.833 381.965 Z " fill="rgb(255,184,184)"/><path d=" M 648.78 471.1 L 647.66 473.68 C 584.935 616.376 432.889 697.805 279.35 670.93 Q 276.305 670.39 273.27 669.81 C 252.363 665.757 231.891 659.72 212.13 651.78 Q 207.315 649.845 202.57 647.77 C 200.41 646.83 198.25 645.86 196.11 644.86 C 176.713 635.874 158.213 625.065 140.86 612.58 L 125.24 567.27 L 134.02 560.57 L 152.08 546.78 L 171.35 532.07 L 176.36 528.24 L 251.97 470.52 L 257.55 466.26 L 296.85 436.26 L 296.86 436.25 C 296.86 436.25 339.36 505.5 401.13 484.91 C 401.13 484.91 461.55 405.28 461.55 405.28 L 648.78 471.1 Z " fill="rgb(47,46,65)"/><path d=" M 223.035 174.916 C 223.035 174.916 264.872 84.27 345.059 105.188 C 345.059 105.188 470.568 157.484 474.055 188.862 C 474.055 188.862 472.311 267.305 472.311 267.305 C 472.311 267.305 463.595 202.807 407.813 216.753 C 407.813 216.753 264.872 220.239 264.872 220.239 L 250.926 345.748 C 250.926 345.748 235.238 323.087 217.806 337.033 C 200.374 350.978 167.253 202.807 223.035 174.916 Z " fill="rgb(47,46,65)"/><path d=" M 212.13 651.78 Q 207.315 649.845 202.57 647.77 C 200.41 646.83 198.25 645.86 196.11 644.86 C 164.029 629.984 134.475 610.177 108.52 586.16 C 117.71 573.64 125.24 567.27 125.24 567.27 L 187.01 567.27 L 196.27 598.41 L 212.13 651.78 Z " fill="rgb(47,46,65)"/><path d=" M 594.67 464.32 L 647.66 473.68 C 633.479 505.985 614.327 535.87 590.9 562.25 L 594.67 464.32 Z " fill="rgb(47,46,65)"/></g></svg>